<?xml version="1.0" encoding="UTF-8" standalone="no"?>
<!DOCTYPE svg PUBLIC "-//W3C//DTD SVG 1.1//EN"
 "http://www.w3.org/Graphics/SVG/1.1/DTD/svg11.dtd">
<!-- Generated by graphviz version 2.43.0 (0)
 -->
<!-- Title: %3 Pages: 1 -->
<svg width="1277pt" height="188pt"
 viewBox="0.00 0.00 1276.50 188.00" xmlns="http://www.w3.org/2000/svg" xmlns:xlink="http://www.w3.org/1999/xlink">
<g id="graph0" class="graph" transform="scale(1 1) rotate(0) translate(4 184)">
<title>%3</title>
<polygon fill="#343541" stroke="transparent" points="-4,4 -4,-184 1272.5,-184 1272.5,4 -4,4"/>
<!-- Inventory Management Application -->
<g id="node1" class="node">
<title>Inventory Management Application</title>
<path fill="#fdfd96" stroke="grey" d="M690.5,-180C690.5,-180 454.5,-180 454.5,-180 448.5,-180 442.5,-174 442.5,-168 442.5,-168 442.5,-156 442.5,-156 442.5,-150 448.5,-144 454.5,-144 454.5,-144 690.5,-144 690.5,-144 696.5,-144 702.5,-150 702.5,-156 702.5,-156 702.5,-168 702.5,-168 702.5,-174 696.5,-180 690.5,-180"/>
<text text-anchor="middle" x="572.5" y="-158.3" font-family="Helvetica,sans-Serif" font-size="14.00" fill="#343541">Inventory Management Application</text>
</g>
<!-- Logging Configuration -->
<g id="node2" class="node">
<title>Logging Configuration</title>
<path fill="#fdfd96" stroke="grey" d="M167,-108C167,-108 20,-108 20,-108 14,-108 8,-102 8,-96 8,-96 8,-84 8,-84 8,-78 14,-72 20,-72 20,-72 167,-72 167,-72 173,-72 179,-78 179,-84 179,-84 179,-96 179,-96 179,-102 173,-108 167,-108"/>
<text text-anchor="middle" x="93.5" y="-86.3" font-family="Helvetica,sans-Serif" font-size="14.00" fill="#343541">Logging Configuration</text>
</g>
<!-- Inventory Management Application&#45;&gt;Logging Configuration -->
<g id="edge1" class="edge">
<title>Inventory Management Application&#45;&gt;Logging Configuration</title>
<path fill="none" stroke="#aaaaaa" d="M442.12,-144.32C370.4,-134.83 279.59,-122.29 189.33,-108.1"/>
<polygon fill="#aaaaaa" stroke="#aaaaaa" points="189.6,-104.6 179.18,-106.49 188.51,-111.51 189.6,-104.6"/>
</g>
<!-- Inventory Script Execution -->
<g id="node3" class="node">
<title>Inventory Script Execution</title>
<path fill="#b4d7a8" stroke="grey" d="M385.5,-108C385.5,-108 209.5,-108 209.5,-108 203.5,-108 197.5,-102 197.5,-96 197.5,-96 197.5,-84 197.5,-84 197.5,-78 203.5,-72 209.5,-72 209.5,-72 385.5,-72 385.5,-72 391.5,-72 397.5,-78 397.5,-84 397.5,-84 397.5,-96 397.5,-96 397.5,-102 391.5,-108 385.5,-108"/>
<text text-anchor="middle" x="297.5" y="-86.3" font-family="Helvetica,sans-Serif" font-size="14.00" fill="#343541">Inventory Script Execution</text>
</g>
<!-- Inventory Management Application&#45;&gt;Inventory Script Execution -->
<g id="edge2" class="edge">
<title>Inventory Management Application&#45;&gt;Inventory Script Execution</title>
<path fill="none" stroke="#aaaaaa" d="M505.58,-143.97C465.99,-133.89 415.68,-121.08 374.45,-110.59"/>
<polygon fill="#aaaaaa" stroke="#aaaaaa" points="375.28,-107.19 364.72,-108.11 373.55,-113.97 375.28,-107.19"/>
</g>
<!-- GUI Initialization -->
<g id="node7" class="node">
<title>GUI Initialization</title>
<path fill="#aec6cf" stroke="grey" d="M535,-108C535,-108 428,-108 428,-108 422,-108 416,-102 416,-96 416,-96 416,-84 416,-84 416,-78 422,-72 428,-72 428,-72 535,-72 535,-72 541,-72 547,-78 547,-84 547,-84 547,-96 547,-96 547,-102 541,-108 535,-108"/>
<text text-anchor="middle" x="481.5" y="-86.3" font-family="Helvetica,sans-Serif" font-size="14.00" fill="#343541">GUI Initialization</text>
</g>
<!-- Inventory Management Application&#45;&gt;GUI Initialization -->
<g id="edge6" class="edge">
<title>Inventory Management Application&#45;&gt;GUI Initialization</title>
<path fill="none" stroke="#aaaaaa" d="M550.01,-143.7C538.54,-134.88 524.44,-124.03 512.02,-114.47"/>
<polygon fill="#aaaaaa" stroke="#aaaaaa" points="513.8,-111.43 503.74,-108.1 509.53,-116.98 513.8,-111.43"/>
</g>
<!-- Spreadsheet Management -->
<g id="node8" class="node">
<title>Spreadsheet Management</title>
<path fill="#fdfd96" stroke="grey" d="M752,-108C752,-108 577,-108 577,-108 571,-108 565,-102 565,-96 565,-96 565,-84 565,-84 565,-78 571,-72 577,-72 577,-72 752,-72 752,-72 758,-72 764,-78 764,-84 764,-84 764,-96 764,-96 764,-102 758,-108 752,-108"/>
<text text-anchor="middle" x="664.5" y="-86.3" font-family="Helvetica,sans-Serif" font-size="14.00" fill="#343541">Spreadsheet Management</text>
</g>
<!-- Inventory Management Application&#45;&gt;Spreadsheet Management -->
<g id="edge7" class="edge">
<title>Inventory Management Application&#45;&gt;Spreadsheet Management</title>
<path fill="none" stroke="#aaaaaa" d="M595.24,-143.7C606.94,-134.8 621.36,-123.82 634.01,-114.2"/>
<polygon fill="#aaaaaa" stroke="#aaaaaa" points="636.18,-116.94 642.02,-108.1 631.94,-111.37 636.18,-116.94"/>
</g>
<!-- Input Dialogs -->
<g id="node9" class="node">
<title>Input Dialogs</title>
<path fill="#aec6cf" stroke="grey" d="M879,-108C879,-108 794,-108 794,-108 788,-108 782,-102 782,-96 782,-96 782,-84 782,-84 782,-78 788,-72 794,-72 794,-72 879,-72 879,-72 885,-72 891,-78 891,-84 891,-84 891,-96 891,-96 891,-102 885,-108 879,-108"/>
<text text-anchor="middle" x="836.5" y="-86.3" font-family="Helvetica,sans-Serif" font-size="14.00" fill="#343541">Input Dialogs</text>
</g>
<!-- Inventory Management Application&#45;&gt;Input Dialogs -->
<g id="edge8" class="edge">
<title>Inventory Management Application&#45;&gt;Input Dialogs</title>
<path fill="none" stroke="#aaaaaa" d="M636.9,-143.94C673.73,-134.19 721.05,-121.65 771.83,-108.18"/>
<polygon fill="#aaaaaa" stroke="#aaaaaa" points="772.92,-111.51 781.69,-105.56 771.12,-104.74 772.92,-111.51"/>
</g>
<!-- Inventory Item Management -->
<g id="node10" class="node">
<title>Inventory Item Management</title>
<path fill="#fdfd96" stroke="grey" d="M1112,-108C1112,-108 921,-108 921,-108 915,-108 909,-102 909,-96 909,-96 909,-84 909,-84 909,-78 915,-72 921,-72 921,-72 1112,-72 1112,-72 1118,-72 1124,-78 1124,-84 1124,-84 1124,-96 1124,-96 1124,-102 1118,-108 1112,-108"/>
<text text-anchor="middle" x="1016.5" y="-86.3" font-family="Helvetica,sans-Serif" font-size="14.00" fill="#343541">Inventory Item Management</text>
</g>
<!-- Inventory Management Application&#45;&gt;Inventory Item Management -->
<g id="edge9" class="edge">
<title>Inventory Management Application&#45;&gt;Inventory Item Management</title>
<path fill="none" stroke="#aaaaaa" d="M680.55,-143.97C746.47,-133.57 830.78,-120.28 898.45,-109.61"/>
<polygon fill="#aaaaaa" stroke="#aaaaaa" points="899.41,-113 908.74,-107.99 898.32,-106.09 899.41,-113"/>
</g>
<!-- run_inventory_script -->
<g id="node4" class="node">
<title>run_inventory_script</title>
<path fill="#b4d7a8" stroke="grey" d="M147,-36C147,-36 12,-36 12,-36 6,-36 0,-30 0,-24 0,-24 0,-12 0,-12 0,-6 6,0 12,0 12,0 147,0 147,0 153,0 159,-6 159,-12 159,-12 159,-24 159,-24 159,-30 153,-36 147,-36"/>
<text text-anchor="middle" x="79.5" y="-14.3" font-family="Helvetica,sans-Serif" font-size="14.00" fill="#343541">run_inventory_script</text>
</g>
<!-- Inventory Script Execution&#45;&gt;run_inventory_script -->
<g id="edge3" class="edge">
<title>Inventory Script Execution&#45;&gt;run_inventory_script</title>
<path fill="none" stroke="#aaaaaa" d="M244.45,-71.97C213.73,-62.1 174.86,-49.62 142.58,-39.25"/>
<polygon fill="#aaaaaa" stroke="#aaaaaa" points="143.38,-35.84 132.79,-36.11 141.24,-42.5 143.38,-35.84"/>
</g>
<!-- run_build_room_inventory_script -->
<g id="node5" class="node">
<title>run_build_room_inventory_script</title>
<path fill="#b4d7a8" stroke="grey" d="M406.5,-36C406.5,-36 188.5,-36 188.5,-36 182.5,-36 176.5,-30 176.5,-24 176.5,-24 176.5,-12 176.5,-12 176.5,-6 182.5,0 188.5,0 188.5,0 406.5,0 406.5,0 412.5,0 418.5,-6 418.5,-12 418.5,-12 418.5,-24 418.5,-24 418.5,-30 412.5,-36 406.5,-36"/>
<text text-anchor="middle" x="297.5" y="-14.3" font-family="Helvetica,sans-Serif" font-size="14.00" fill="#343541">run_build_room_inventory_script</text>
</g>
<!-- Inventory Script Execution&#45;&gt;run_build_room_inventory_script -->
<g id="edge4" class="edge">
<title>Inventory Script Execution&#45;&gt;run_build_room_inventory_script</title>
<path fill="none" stroke="#aaaaaa" d="M297.5,-71.7C297.5,-63.98 297.5,-54.71 297.5,-46.11"/>
<polygon fill="#aaaaaa" stroke="#aaaaaa" points="301,-46.1 297.5,-36.1 294,-46.1 301,-46.1"/>
</g>
<!-- run_combined_rooms_inventory_script -->
<g id="node6" class="node">
<title>run_combined_rooms_inventory_script</title>
<path fill="#b4d7a8" stroke="grey" d="M708.5,-36C708.5,-36 448.5,-36 448.5,-36 442.5,-36 436.5,-30 436.5,-24 436.5,-24 436.5,-12 436.5,-12 436.5,-6 442.5,0 448.5,0 448.5,0 708.5,0 708.5,0 714.5,0 720.5,-6 720.5,-12 720.5,-12 720.5,-24 720.5,-24 720.5,-30 714.5,-36 708.5,-36"/>
<text text-anchor="middle" x="578.5" y="-14.3" font-family="Helvetica,sans-Serif" font-size="14.00" fill="#343541">run_combined_rooms_inventory_script</text>
</g>
<!-- Inventory Script Execution&#45;&gt;run_combined_rooms_inventory_script -->
<g id="edge5" class="edge">
<title>Inventory Script Execution&#45;&gt;run_combined_rooms_inventory_script</title>
<path fill="none" stroke="#aaaaaa" d="M365.88,-71.97C406.34,-61.89 457.74,-49.08 499.87,-38.59"/>
<polygon fill="#aaaaaa" stroke="#aaaaaa" points="500.95,-41.92 509.81,-36.11 499.26,-35.13 500.95,-41.92"/>
</g>
<!-- Adding/Subtracting Items -->
<g id="node11" class="node">
<title>Adding/Subtracting Items</title>
<path fill="#fdfd96" stroke="grey" d="M1010.5,-36C1010.5,-36 840.5,-36 840.5,-36 834.5,-36 828.5,-30 828.5,-24 828.5,-24 828.5,-12 828.5,-12 828.5,-6 834.5,0 840.5,0 840.5,0 1010.5,0 1010.5,0 1016.5,0 1022.5,-6 1022.5,-12 1022.5,-12 1022.5,-24 1022.5,-24 1022.5,-30 1016.5,-36 1010.5,-36"/>
<text text-anchor="middle" x="925.5" y="-14.3" font-family="Helvetica,sans-Serif" font-size="14.00" fill="#343541">Adding/Subtracting Items</text>
</g>
<!-- Inventory Item Management&#45;&gt;Adding/Subtracting Items -->
<g id="edge10" class="edge">
<title>Inventory Item Management&#45;&gt;Adding/Subtracting Items</title>
<path fill="none" stroke="#aaaaaa" d="M994.01,-71.7C982.54,-62.88 968.44,-52.03 956.02,-42.47"/>
<polygon fill="#aaaaaa" stroke="#aaaaaa" points="957.8,-39.43 947.74,-36.1 953.53,-44.98 957.8,-39.43"/>
</g>
<!-- Handling Unique Identification -->
<g id="node12" class="node">
<title>Handling Unique Identification</title>
<path fill="#fdfd96" stroke="grey" d="M1256.5,-36C1256.5,-36 1052.5,-36 1052.5,-36 1046.5,-36 1040.5,-30 1040.5,-24 1040.5,-24 1040.5,-12 1040.5,-12 1040.5,-6 1046.5,0 1052.5,0 1052.5,0 1256.5,0 1256.5,0 1262.5,0 1268.5,-6 1268.5,-12 1268.5,-12 1268.5,-24 1268.5,-24 1268.5,-30 1262.5,-36 1256.5,-36"/>
<text text-anchor="middle" x="1154.5" y="-14.3" font-family="Helvetica,sans-Serif" font-size="14.00" fill="#343541">Handling Unique Identification</text>
</g>
<!-- Inventory Item Management&#45;&gt;Handling Unique Identification -->
<g id="edge11" class="edge">
<title>Inventory Item Management&#45;&gt;Handling Unique Identification</title>
<path fill="none" stroke="#aaaaaa" d="M1050.26,-71.88C1068.72,-62.51 1091.78,-50.81 1111.52,-40.8"/>
<polygon fill="#aaaaaa" stroke="#aaaaaa" points="1113.28,-43.83 1120.61,-36.19 1110.11,-37.59 1113.28,-43.83"/>
</g>
</g>
</svg>
